<svg xmlns="http://www.w3.org/2000/svg" xmlns:xlink="http://www.w3.org/1999/xlink" width="31" height="30"><defs><path id="a" d="M1153.49 4511.01c4.2 0 4.74.02 6.39.1 1.65.07 2.78.32 3.77.69a7.6 7.6 0 0 1 2.74 1.73c.86.83 1.4 1.67 1.79 2.65.38.96.64 2.04.72 3.64.07 1.6.1 2.11.1 6.18s-.03 4.58-.1 6.18a10.8 10.8 0 0 1-.72 3.64c-.4.99-.93 1.82-1.79 2.66a7.63 7.63 0 0 1-2.74 1.73c-.99.37-2.12.62-3.77.7-1.65.07-2.18.08-6.39.08-4.21 0-4.74-.01-6.4-.09a11.71 11.71 0 0 1-3.75-.7 7.64 7.64 0 0 1-2.75-1.72 7.33 7.33 0 0 1-1.79-2.66 10.7 10.7 0 0 1-.72-3.64c-.07-1.6-.1-2.1-.1-6.18 0-4.07.03-4.58.1-6.18.08-1.6.34-2.68.72-3.64.4-.98.93-1.82 1.79-2.65a7.62 7.62 0 0 1 2.75-1.73c.98-.37 2.1-.62 3.76-.7 1.65-.07 2.18-.09 6.4-.09zm-1.39 2.7c-2.89 0-3.44.02-4.87.08a8.78 8.78 0 0 0-2.88.52 4.8 4.8 0 0 0-1.78 1.12 4.64 4.64 0 0 0-1.16 1.73 8.07 8.07 0 0 0-.54 2.78c-.07 1.58-.09 2.05-.09 6.06 0 4 .02 4.47.1 6.05.06 1.46.31 2.26.53 2.79.28.7.61 1.2 1.16 1.72.54.52 1.06.85 1.78 1.12.55.2 1.37.45 2.88.52 1.63.07 2.12.09 6.26.09s4.63-.02 6.27-.1a8.87 8.87 0 0 0 2.88-.5c.72-.28 1.23-.6 1.78-1.13a4.6 4.6 0 0 0 1.16-1.72c.2-.53.46-1.32.53-2.78.07-1.59.1-2.06.1-6.06 0-4-.03-4.48-.1-6.06a8.05 8.05 0 0 0-.53-2.78c-.28-.7-.62-1.2-1.16-1.72a4.82 4.82 0 0 0-1.78-1.13 8.9 8.9 0 0 0-2.88-.51c-1.64-.07-2.13-.09-6.27-.09h-1.39zm9.67 2.5c1.02 0 1.86.8 1.86 1.79 0 1-.84 1.8-1.86 1.8-1.03 0-1.86-.8-1.86-1.8s.83-1.8 1.86-1.8zm-8.28 2.1c4.4 0 7.96 3.44 7.96 7.7 0 4.24-3.56 7.69-7.96 7.69a7.83 7.83 0 0 1-7.96-7.7c0-4.25 3.57-7.7 7.96-7.7zm-5.17 7.7c0 2.75 2.32 4.99 5.17 4.99a5.08 5.08 0 0 0 5.17-5c0-2.76-2.31-5-5.17-5a5.08 5.08 0 0 0-5.17 5z"/></defs><use fill="#fff" xlink:href="#a" transform="translate(-1138 -4511)"/></svg>