<svg xmlns="http://www.w3.org/2000/svg" xmlns:xlink="http://www.w3.org/1999/xlink" width="23" height="17"><defs><path id="a" d="M1009 4327.8v13.4c0 .99-.8 1.8-1.79 1.8H987.8a1.8 1.8 0 0 1-1.79-1.8v-13.4c0-1 .8-1.8 1.8-1.8h19.41c.99 0 1.8.8 1.8 1.8zm-7.8 6.8l5.06-4.97a.63.63 0 0 0 0-.89.62.62 0 0 0-.87 0l-7.73 7.58-8.05-7.6a.62.62 0 0 0-.88.03.63.63 0 0 0 .03.88l5.05 4.77-5.06 4.97a.63.63 0 0 0 .43 1.07c.16 0 .32-.06.44-.18l5.1-5 2.52 2.37a.62.62 0 0 0 .86 0l2.2-2.17 5.1 4.81a.62.62 0 0 0 .88-.02.63.63 0 0 0-.03-.89z"/></defs><use fill="#fff" xlink:href="#a" opacity=".3" transform="translate(-986 -4326)"/></svg>