<svg xmlns="http://www.w3.org/2000/svg" xmlns:xlink="http://www.w3.org/1999/xlink" width="19" height="21"><defs><path id="a" d="M786.68 4341.02l-4.28-3.58a.89.89 0 0 0-1.18.03l-1.37 1.24a.33.33 0 0 1-.08.06c-.18.08-.99.12-3.6-2.94a15.06 15.06 0 0 1-2.14-3c-.2-.4-.38-.93-.16-1.13l1.37-1.24c.33-.3.4-.81.18-1.2l-2.9-4.83a.9.9 0 0 0-1.38-.2l-1.37 1.24c-1.54 1.4-2.1 3.68-1.59 6.43a17 17 0 0 0 3.88 7.66c3.78 4.42 8.72 6.46 12.03 4.95.45-.2.87-.48 1.23-.81l1.38-1.25a.96.96 0 0 0-.02-1.43z"/></defs><use fill="#fff" xlink:href="#a" opacity=".3" transform="translate(-768 -4324)"/></svg>