<svg xmlns="http://www.w3.org/2000/svg" xmlns:xlink="http://www.w3.org/1999/xlink" width="42" height="25"><defs><path id="a" d="M1347 4513c5.6 0 9.8 1.38 14 5.55h7s0 2.08-2.8 2.78c1.26 1.72 2.8 4.66 2.8 6.94 0 5.73-4.02 9.72-9.8 9.72-3.27 0-6.48-1.82-8.4-4.16l-2.8 4.16-2.8-4.16c-1.93 2.34-5.13 4.16-8.4 4.16-5.78 0-9.8-3.99-9.8-9.72 0-2.28 1.54-5.23 2.8-6.93-2.8-.7-2.8-2.78-2.8-2.78h7c4.2-4.17 8.4-5.57 14-5.57zm0 1.38c-7 0-11.2 4.17-11.2 4.18 5.6 0 11.2 6.93 11.2 13.88 0-6.95 5.6-13.9 11.2-13.9 0 0-4.2-4.16-11.2-4.16zm-11.2 6.95c-3.87 0-7 3.11-7 6.94a6.97 6.97 0 0 0 7 6.95c3.87 0 7-3.11 7-6.95a6.97 6.97 0 0 0-7-6.94zm22.4 0c-3.87 0-7 3.11-7 6.94a6.97 6.97 0 0 0 7 6.95c3.88 0 7-3.11 7-6.95a6.97 6.97 0 0 0-7-6.94zm-22.4 2.78c2.32 0 4.2 1.86 4.2 4.16s-1.88 4.17-4.2 4.17a4.18 4.18 0 0 1-4.2-4.17c0-2.3 1.87-4.16 4.2-4.16zm22.4 0c2.32 0 4.2 1.86 4.2 4.16s-1.88 4.17-4.2 4.17a4.18 4.18 0 0 1-4.2-4.17c0-2.3 1.88-4.16 4.2-4.16zm-25.2 4.16a2.8 2.8 0 0 0 2.8 2.79 2.8 2.8 0 0 0 2.8-2.79 2.8 2.8 0 0 0-5.6 0zm22.4 0a2.8 2.8 0 0 0 5.6 0 2.8 2.8 0 0 0-2.8-2.78 2.8 2.8 0 0 0-2.8 2.78zm-18.2 0c0 .75-.63 1.38-1.4 1.38-.77 0-1.4-.62-1.4-1.39 0-.76.62-1.38 1.4-1.38.77 0 1.4.62 1.4 1.38zm22.4 0c0 .75-.62 1.38-1.4 1.38-.76 0-1.4-.62-1.4-1.39a1.4 1.4 0 1 1 2.8 0z"/></defs><use fill="#fff" xlink:href="#a" transform="translate(-1326 -4513)"/></svg>