<svg xmlns="http://www.w3.org/2000/svg" xmlns:xlink="http://www.w3.org/1999/xlink" width="31" height="18"><defs><path id="a" d="M574.17 4533.74h1.86s.56-.06.84-.37c.27-.28.26-.82.26-.82s-.04-2.5 1.12-2.87c1.13-.37 2.6 2.42 4.14 3.49 1.17.8 2.06.63 2.06.63l4.14-.06s2.17-.13 1.14-1.85c-.08-.14-.6-1.27-3.08-3.58-2.6-2.43-2.25-2.04.88-6.24 1.9-2.56 2.67-4.12 2.43-4.78-.23-.64-1.63-.47-1.63-.47l-4.66.02s-.35-.04-.6.11-.41.5-.41.5-.74 1.98-1.72 3.67c-2.08 3.55-2.91 3.74-3.25 3.52-.79-.52-.6-2.07-.6-3.17 0-3.44.53-4.88-1-5.25-.5-.12-.88-.2-2.18-.22-1.66-.01-3.07 0-3.86.4-.53.27-.94.85-.7.88.31.04 1.01.19 1.38.7.48.65.46 2.12.46 2.12s.28 4.05-.64 4.56c-.63.34-1.49-.36-3.34-3.58a29.9 29.9 0 0 1-1.66-3.48s-.14-.34-.39-.52c-.3-.22-.71-.3-.71-.3l-4.43.04s-.67.01-.91.3c-.22.27-.02.8-.02.8s3.47 8.18 7.4 12.3c3.6 3.77 7.68 3.52 7.68 3.52z"/></defs><use fill="#fff" xlink:href="#a" transform="translate(-559 -4516)"/></svg>