<svg xmlns="http://www.w3.org/2000/svg" xmlns:xlink="http://www.w3.org/1999/xlink" width="36" height="23"><defs><path id="a" d="M979 4526.5c0 2.58 0 5.3-.63 7.8a4.43 4.43 0 0 1-3.9 3.25c-4.46.46-8.98.46-13.48.46s-9.02 0-13.48-.46a4.42 4.42 0 0 1-3.9-3.24c-.62-2.5-.62-5.23-.62-7.8 0-2.58 0-5.31.63-7.81.44-1.76 2-3.05 3.9-3.24 4.46-.46 8.98-.46 13.48-.46s9.02 0 13.48.46a4.43 4.43 0 0 1 3.9 3.24c.62 2.5.62 5.23.62 7.8zm-11.2-.32l-11.45-5.47v10.92l11.44-5.45z"/></defs><use fill="#fff" xlink:href="#a" transform="translate(-943 -4515)"/></svg>