<svg xmlns="http://www.w3.org/2000/svg" xmlns:xlink="http://www.w3.org/1999/xlink" width="18" height="19" viewBox="0 0 18 19"><defs><path id="zv28a" d="M427.76 21.55l9.19 9.2a.5.5 0 1 1-.7.7l-9.2-9.2a.5.5 0 0 1 .7-.7z"/><path id="zv28b" d="M426.3 12.99a7.4 7.4 0 0 1 7.3 7.5 7.4 7.4 0 0 1-7.3 7.52 7.4 7.4 0 0 1-7.3-7.51 7.4 7.4 0 0 1 7.3-7.51z"/><path id="zv28c" d="M426.3 14.02c3.47 0 6.29 2.9 6.29 6.48a6.39 6.39 0 0 1-6.3 6.48c-3.47 0-6.3-2.9-6.3-6.48a6.39 6.39 0 0 1 6.3-6.48z"/></defs><g><g transform="translate(-419 -13)"><g><use fill="#394c66" xlink:href="#zv28a"/></g><g><use fill="#394c66" xlink:href="#zv28b"/></g><g><use fill="#fff" xlink:href="#zv28c"/></g></g></g></svg>