<svg xmlns="http://www.w3.org/2000/svg" xmlns:xlink="http://www.w3.org/1999/xlink" width="22" height="19" viewBox="0 0 22 19"><defs><path id="t2u4a" d="M1060.57 29.1c.8 0 1.46.65 1.46 1.45 0 .8-.65 1.46-1.46 1.46a1.46 1.46 0 1 1 0-2.91z"/><path id="t2u4b" d="M1068.55 29.1c.8 0 1.46.65 1.46 1.45 0 .8-.65 1.46-1.46 1.46a1.46 1.46 0 1 1 0-2.91z"/><path id="t2u4c" d="M1050 14.01V13h7v1.01z"/><path id="t2u4d" d="M1059 17.01V16h13V17z"/><path id="t2u4e" d="M1058 28V27h13V28z"/><path id="t2u4f" d="M1071.07 16l.94.08-1.06 11.91-.95-.08z"/><path id="t2u4g" d="M1056 13.16l.73-.15 2.26 14.83-.73.16z"/></defs><g><g transform="translate(-1050 -13)"><g><use fill="#a1a1a2" xlink:href="#t2u4a"/></g><g><use fill="#a1a1a2" xlink:href="#t2u4b"/></g><g><use fill="#a1a1a2" xlink:href="#t2u4c"/></g><g><use fill="#a1a1a2" xlink:href="#t2u4d"/></g><g><use fill="#a1a1a2" xlink:href="#t2u4e"/></g><g><use fill="#a1a1a2" xlink:href="#t2u4f"/></g><g><use fill="#a1a1a2" xlink:href="#t2u4g"/></g></g></g></svg>