<svg xmlns="http://www.w3.org/2000/svg" xmlns:xlink="http://www.w3.org/1999/xlink" width="17" height="17" viewBox="0 0 17 17"><defs><path id="a5vya" d="M637 646v-3h3v3z"/><path id="a5vyb" d="M630 646v-3h3v3z"/><path id="a5vyc" d="M623 646v-3h3v3z"/><path id="a5vyd" d="M637 653v-3h3v3z"/><path id="a5vye" d="M630 653v-3h3v3z"/><path id="a5vyf" d="M623 653v-3h3v3z"/><path id="a5vyg" d="M637 660v-3h3v3z"/><path id="a5vyh" d="M630 660v-3h3v3z"/><path id="a5vyi" d="M623 660v-3h3v3z"/></defs><g><g transform="translate(-623 -643)"><use fill="#fff" xlink:href="#a5vya"/></g><g transform="translate(-623 -643)"><use fill="#fff" xlink:href="#a5vyb"/></g><g transform="translate(-623 -643)"><use fill="#fff" xlink:href="#a5vyc"/></g><g transform="translate(-623 -643)"><use fill="#fff" xlink:href="#a5vyd"/></g><g transform="translate(-623 -643)"><use fill="#fff" xlink:href="#a5vye"/></g><g transform="translate(-623 -643)"><use fill="#fff" xlink:href="#a5vyf"/></g><g transform="translate(-623 -643)"><use fill="#fff" xlink:href="#a5vyg"/></g><g transform="translate(-623 -643)"><use fill="#fff" xlink:href="#a5vyh"/></g><g transform="translate(-623 -643)"><use fill="#fff" xlink:href="#a5vyi"/></g></g></svg>