<svg xmlns="http://www.w3.org/2000/svg" xmlns:xlink="http://www.w3.org/1999/xlink" width="16" height="17" viewBox="0 0 16 17"><defs><path id="6prba" d="M655 644v-1h11v1z"/><path id="6prbb" d="M655 646v-1h11v1z"/><path id="6prbc" d="M655 648v-1h11v1z"/><path id="6prbd" d="M655 650v-1h11v1z"/><path id="6prbe" d="M655 652v-1h11v1z"/><path id="6prbf" d="M655 654v-1h11v1z"/><path id="6prbg" d="M655 656v-1h11v1z"/><path id="6prbh" d="M655 658v-1h11v1z"/><path id="6prbi" d="M655 660v-1h11v1z"/><path id="6prbj" d="M650 646v-3h3v3z"/><path id="6prbk" d="M650 653v-3h3v3z"/><path id="6prbl" d="M650 660v-3h3v3z"/></defs><g><g transform="translate(-650 -643)"><use fill="#a9a7a7" xlink:href="#6prba"/></g><g transform="translate(-650 -643)"><use fill="#a9a7a7" xlink:href="#6prbb"/></g><g transform="translate(-650 -643)"><use fill="#a9a7a7" xlink:href="#6prbc"/></g><g transform="translate(-650 -643)"><use fill="#a9a7a7" xlink:href="#6prbd"/></g><g transform="translate(-650 -643)"><use fill="#a9a7a7" xlink:href="#6prbe"/></g><g transform="translate(-650 -643)"><use fill="#a9a7a7" xlink:href="#6prbf"/></g><g transform="translate(-650 -643)"><use fill="#a9a7a7" xlink:href="#6prbg"/></g><g transform="translate(-650 -643)"><use fill="#a9a7a7" xlink:href="#6prbh"/></g><g transform="translate(-650 -643)"><use fill="#a9a7a7" xlink:href="#6prbi"/></g><g transform="translate(-650 -643)"><use fill="#a9a7a7" xlink:href="#6prbj"/></g><g transform="translate(-650 -643)"><use fill="#a9a7a7" xlink:href="#6prbk"/></g><g transform="translate(-650 -643)"><use fill="#a9a7a7" xlink:href="#6prbl"/></g></g></svg>