<svg xmlns="http://www.w3.org/2000/svg" viewBox="0 0 342.8 102.7"><style>.st2{fill:#fff}</style><g id="ff-2"><path class="st2" d="M30.2 41.4c2.8 0 5.1-2.3 5.1-5.1s-2.3-5.1-5.1-5.1H5.1c-2.9 0-5.1 2.2-5.1 5.1v43.1c0 2.9 2.2 5.1 5.1 5.1 2.8 0 5.1-2.3 5.1-5.1V63.1H25c2.8 0 5.1-2.3 5.1-5.1s-2.3-5.1-5.1-5.1H10.2V41.4h20zm22.7 4c-10.8 0-19.6 8.8-19.6 19.6s8.8 19.6 19.6 19.6S72.5 75.8 72.5 65s-8.8-19.6-19.6-19.6zm0 29c-5.2 0-9.4-4.2-9.4-9.4s4.2-9.4 9.4-9.4 9.4 4.2 9.4 9.4-4.2 9.4-9.4 9.4zm42.2-29c-10.8 0-19.6 8.8-19.6 19.6s8.8 19.6 19.6 19.6 19.6-8.8 19.6-19.6-8.8-19.6-19.6-19.6zm0 29c-5.2 0-9.4-4.2-9.4-9.4s4.2-9.4 9.4-9.4 9.4 4.2 9.4 9.4-4.2 9.4-9.4 9.4zm61.8-41.9c0-2.8-2.3-5-5.1-5s-5 2.3-5 5v15.2c-2.9-1.6-6.1-2.4-9.4-2.4-10.8 0-19.6 8.8-19.6 19.6s8.8 19.6 19.6 19.6S157 75.7 157 64.9V32.5zm-19.5 41.8c-5.2 0-9.4-4.2-9.4-9.4s4.2-9.4 9.4-9.4 9.4 4.2 9.4 9.4v.1c0 5-4.2 9.3-9.4 9.3zm31.2-43.1c-1.2 0-2.5.5-3.6 1.5-.9.9-1.4 2.2-1.4 3.6s.5 2.7 1.4 3.6l.1.1c1 .9 2.2 1.4 3.5 1.4 1.4 0 2.7-.5 3.5-1.4 1-.9 1.6-2.2 1.6-3.6s-.6-2.7-1.5-3.6c-1-1-2.3-1.6-3.6-1.6zm0 14.3c-2.8 0-5 2.3-5 5v33.3c.1 2.5-.9 5-2.8 6.8-1 1-2.2 1.7-3.5 2.2-1.3.4-2.3 1.4-2.9 2.6-.6 1.2-.6 2.6-.2 3.9.7 2 2.6 3.4 4.7 3.4.6 0 1.3-.1 1.7-.3 2.7-1 5.3-2.6 7.2-4.6 3.7-3.7 5.8-8.7 5.8-14.1V50.6c.1-2.8-2.2-5.1-5-5.1zm35.7 9.8c1.9 0 4.1.6 4.7 1.8l.2.3c.9 1.3 2 3 4.5 3 2.6 0 5-2.2 5.2-4.8v-.1c0-3.3-2.4-6.3-6.7-8.4h-.1c-2.4-1.2-5-1.8-7.6-1.8-6.6 0-13.7 4.4-13.7 12.5 0 7.9 6.9 11.6 13.3 12.3 4.4.5 4.6 1.7 4.6 2.2-.1.7-.4 2.3-3.5 2.3-2.6-.1-3.9-.8-5.3-2.8-.9-1.2-2.4-2-3.9-2-2.8 0-5.2 2.3-5.2 5 0 .4 0 1 .3 1.6 2.2 5.6 8.8 8.2 14.3 8.2 11.1 0 13.5-8.9 13.5-12.3 0-3.4-1.8-6.9-4.8-9.3-3.1-2.4-6.5-2.8-9.2-3.2-3.6-.5-4-.8-4-2 0-1.7 1.7-2.5 3.4-2.5zm39-9.8h-3.6V32.6c0-2.8-2.3-5-5.1-5s-5 2.3-5 5v12.9h-3.7c-2.8 0-5 2.3-5 5 0 2.8 2.3 5.1 5 5.1h3.7v23.9c0 2.8 2.3 5.1 5 5.1 2.8 0 5.1-2.3 5.1-5.1V55.6h3.6c2.8 0 5.1-2.3 5.1-5.1s-2.3-5-5.1-5zm13.4-14.4c-1.3 0-2.6.6-3.6 1.5-1 1-1.5 2.3-1.5 3.6s.6 2.6 1.5 3.6c.9.9 2.2 1.4 3.6 1.4s2.7-.5 3.6-1.4c.9-.9 1.4-2.2 1.4-3.6s-.5-2.7-1.4-3.6c-1-.9-2.3-1.5-3.6-1.5zm-68-18.4c0-.4-.4-.6-.9-.6s-.9.3-.9.7v10.3c0 .3-.3.7-.8.7-.6.1-1.1-.3-1.1-.7V12.7c0-.4-.4-.7-.9-.7h-.1c-.5 0-.9.3-.9.7V23c0 .3-.3.7-.8.7-.6.1-1.1-.3-1.1-.7V12.7c0-.4-.4-.7-.9-.7h-.1c-.5 0-.9.3-.9.7V23c0 .3-.3.7-.8.7-.6.1-1.1-.3-1.1-.7V12.7c0-.4-.4-.7-.9-.7s-.9.3-.9.6c-.1 2.8-.5 14.2.1 15 1.2 1.5 2.9 1.7 4 3.3 1.2 1.7 1.4 2.3 1 5.9-.2 1.7-.5 3.5-.9 5.1-1.6.9-2.6 2.5-2.6 4.4v33.1c0 2.8 2.3 5.1 5.1 5.1s5.1-2.3 5.1-5.1v-33c0-1.9-1.1-3.5-2.6-4.4-.4-1.6-.8-3.4-.9-5.1-.4-3.7-.1-4.3 1-5.9 1.2-1.7 2.8-1.8 4-3.3.3-.8-.1-12.2-.2-15zm68 32.8c-2.8 0-5.1 2.3-5.1 5v29c0 2.9 2.2 5.1 5.1 5.1 2.8 0 5-2.3 5-5.1v-29c0-2.8-2.3-5-5-5zm27.4 10.1c3.4 0 6.5 1.8 8.2 4.8 1.4 2.3 4.5 3.2 7 1.8 2.4-1.5 3.2-4.6 1.8-6.9-3.5-6-10-9.7-17-9.7-10.8 0-19.5 8.8-19.5 19.6s8.7 19.6 19.5 19.6c6.7 0 12.9-3.4 16.5-9 1.5-2.4.9-5.5-1.5-7.1-2.4-1.4-5.5-.7-7 1.6-1.7 2.7-4.7 4.3-8 4.3-5.1 0-9.4-4.3-9.4-9.4-.1-5.4 4.2-9.6 9.4-9.6zm39.5-10.1c-11.1 0-19.7 8.7-19.7 19.7 0 10.8 8.7 19.2 19.7 19.2 3.9 0 7-.8 9.8-2.6.9 1.6 2.7 2.6 4.3 2.6 2.9 0 5.1-2.2 5.1-5.1V65.2c0-11-8.4-19.7-19.2-19.7zm0 28.9c-5.3 0-9.7-4.1-9.7-9.2 0-5.2 4.4-9.7 9.7-9.7 5 0 9.2 4.3 9.2 9.7 0 5.3-4 9.2-9.2 9.2z"/><ellipse transform="rotate(-9.53 180.188 7.208)" cx="180.2" cy="7.2" rx="8.8" ry="6.7" fill="olive"/><path class="st2" d="M176.9 3.6c.6.5.1 1.8-1 3s-2.5 1.7-3.1 1.3c-.6-.5-.1-1.8 1-3 1.2-1.2 2.5-1.8 3.1-1.3zm3.5-1.2c.1.3-.4.7-1.2.9-.8.2-1.5.1-1.6-.2-.1-.3.4-.7 1.2-.9.8-.2 1.5-.1 1.6.2z"/></g></svg>